<?xml version="1.0" encoding="utf-8"?>
<!-- Generator: Adobe Illustrator 24.0.0, SVG Export Plug-In . SVG Version: 6.00 Build 0)  -->
<svg version="1.1" id="Layer_1" xmlns="http://www.w3.org/2000/svg" xmlns:xlink="http://www.w3.org/1999/xlink" x="0px" y="0px"
	 viewBox="0 0 938.94 626.16" style="enable-background:new 0 0 938.94 626.16;" xml:space="preserve">
<style type="text/css">
	.st0{fill:#1D1D1B;}
	.st1{fill:#030303;}
</style>
<g>
	<path class="st0" d="M109.35,344.15c-37.67,36.17-70.32,75.31-95.89,115.97l-2.51,3.99c0.87,1.21,1.78,2.39,2.75,3.53
		c41.71,48.85,95.82,87.82,157.83,114.91c-3.78-18.29-7.82-36.66-12-54.61c-8.95-38.75-19.19-78.42-30.44-117.91
		C122.8,387.92,116.21,365.94,109.35,344.15"/>
	<path class="st0" d="M289.93,294.95C289.93,294.95,289.93,294.95,289.93,294.95c-3.09,0-6.17-0.29-9.18-0.85
		c-0.81-0.15-1.35-0.93-1.19-1.74c0.13-0.71,0.75-1.22,1.46-1.22c0.09,0,0.19,0.01,0.28,0.03c2.83,0.53,5.73,0.79,8.63,0.8
		c0,0,0,0,0,0c0.82,0,1.49,0.67,1.49,1.49c0,0.68-0.46,1.26-1.08,1.43C290.21,294.93,290.07,294.95,289.93,294.95 M304.63,292.75
		c-0.64,0-1.23-0.41-1.43-1.06c-0.24-0.79,0.2-1.62,0.99-1.86c2.75-0.84,5.45-1.94,8.03-3.27c0.22-0.12,0.46-0.17,0.69-0.17
		c0.54,0,1.06,0.3,1.32,0.81c0.38,0.73,0.09,1.63-0.64,2.01c-2.74,1.41-5.6,2.58-8.53,3.48l-0.03,0.01
		C304.9,292.73,304.76,292.75,304.63,292.75 M267.02,289.16c-0.24,0-0.49-0.06-0.71-0.18c-1.29-0.7-2.55-1.47-3.76-2.27
		c-1.33-0.89-2.63-1.79-3.9-2.7c-0.67-0.48-0.82-1.41-0.34-2.08c0.29-0.41,0.75-0.63,1.21-0.63c0.3,0,0.61,0.09,0.87,0.28
		c1.24,0.89,2.51,1.78,3.82,2.65c1.15,0.77,2.32,1.47,3.53,2.13c0.72,0.39,0.99,1.3,0.6,2.02c-0.2,0.37-0.53,0.61-0.9,0.72
		C267.3,289.14,267.16,289.16,267.02,289.16 M324.94,280.64c-0.39,0-0.77-0.15-1.06-0.44c-0.58-0.59-0.57-1.53,0.01-2.11
		c1.72-1.7,3.31-3.53,4.72-5.45c0.29-0.39,0.57-0.79,0.84-1.18c0.29-0.42,0.76-0.65,1.23-0.65c0.29,0,0.59,0.09,0.85,0.26
		c0.68,0.47,0.85,1.4,0.38,2.08c-0.29,0.43-0.59,0.84-0.9,1.26c-1.5,2.04-3.19,3.99-5.02,5.8c-0.19,0.18-0.41,0.31-0.64,0.37
		C325.22,280.62,325.08,280.64,324.94,280.64 M247.95,274.89c-0.36,0-0.72-0.13-1-0.39c-2.23-2.05-4.41-4.18-6.46-6.35
		c-0.57-0.6-0.54-1.54,0.06-2.11c0.29-0.27,0.66-0.41,1.03-0.41c0.4,0,0.79,0.16,1.08,0.47c2,2.12,4.12,4.2,6.3,6.2
		c0.61,0.56,0.65,1.5,0.09,2.11c-0.19,0.21-0.43,0.35-0.69,0.43C248.22,274.87,248.08,274.89,247.95,274.89 M341.05,263.35
		c-0.54,0-1.06-0.29-1.32-0.8c-0.38-0.73-0.1-1.63,0.63-2.01c2.78-1.45,5.84-2.41,9.01-2.81c0.06-0.01,0.13-0.01,0.19-0.01
		c0.74,0,1.38,0.55,1.48,1.31c0.1,0.82-0.47,1.58-1.3,1.67c-2.82,0.35-5.54,1.2-7.99,2.49c-0.09,0.05-0.19,0.09-0.29,0.11
		C341.32,263.33,341.19,263.35,341.05,263.35 M364.26,258.45c-0.64,0-1.23-0.42-1.43-1.06c-0.24-0.79,0.21-1.62,1-1.86
		c2.75-0.83,5.46-1.92,8.04-3.24c0.22-0.11,0.45-0.17,0.68-0.17c0.54,0,1.07,0.3,1.33,0.82c0.38,0.74,0.09,1.63-0.65,2.01
		c-2.74,1.41-5.62,2.57-8.54,3.45l-0.02,0.01C364.53,258.43,364.39,258.45,364.26,258.45 M384.62,246.43
		c-0.39,0-0.77-0.15-1.07-0.45c-0.58-0.59-0.57-1.53,0.02-2.11c0.83-0.81,1.63-1.65,2.39-2.51c1.26-1.43,2.68-2.72,4.21-3.83
		c0.27-0.19,0.57-0.28,0.87-0.28c0.46,0,0.92,0.21,1.21,0.61c0.48,0.67,0.34,1.6-0.33,2.09c-1.35,0.98-2.61,2.12-3.73,3.39
		c-0.81,0.92-1.66,1.81-2.54,2.67c-0.18,0.18-0.4,0.3-0.63,0.37C384.9,246.41,384.76,246.43,384.62,246.43 M411.26,236.05
		c-1.62,0-3.24-0.08-4.84-0.23c-0.48-0.05-0.96-0.08-1.44-0.09c-0.82-0.02-1.48-0.7-1.46-1.52c0.02-0.81,0.67-1.46,1.48-1.46
		c0.01,0,0.03,0,0.04,0c0.55,0.01,1.11,0.05,1.66,0.1c1.52,0.15,3.06,0.22,4.6,0.22c0.86,0,1.72-0.02,2.57-0.07
		c0.03,0,0.06,0,0.09,0c0.79,0,1.44,0.61,1.49,1.41c0.04,0.71-0.42,1.33-1.08,1.52c-0.11,0.03-0.21,0.05-0.33,0.05
		C413.11,236.02,412.18,236.05,411.26,236.05 M428.51,232.99c-0.61,0-1.18-0.37-1.4-0.98c-0.28-0.77,0.11-1.63,0.89-1.92
		c1.23-0.45,2.44-0.95,3.62-1.49c1.44-0.66,2.86-1.4,4.23-2.2c0.23-0.14,0.49-0.21,0.75-0.21c0.51,0,1.02,0.27,1.29,0.75
		c0.42,0.71,0.17,1.63-0.54,2.04c-1.45,0.85-2.96,1.63-4.49,2.33c-1.25,0.58-2.54,1.11-3.84,1.59l-0.11,0.03
		C428.78,232.97,428.65,232.99,428.51,232.99 M474.71,214.98c1.91,0,3.83-0.11,5.74-0.34c0.06-0.01,0.12-0.01,0.18-0.01
		c0.74,0,1.39,0.56,1.48,1.31c0.09,0.74-0.38,1.41-1.07,1.61l-0.24,0.05c-2.02,0.24-4.06,0.36-6.1,0.36c-1.04,0-2.07-0.03-3.1-0.09
		c-0.82-0.05-1.45-0.76-1.4-1.58c0.05-0.79,0.7-1.4,1.48-1.4c0.03,0,0.07,0,0.1,0C472.75,214.95,473.73,214.98,474.71,214.98
		 M448.56,220.31c-0.5,0-0.98-0.25-1.27-0.7c-0.43-0.7-0.22-1.62,0.48-2.05c2-1.25,4.17-2.21,6.43-2.85c0.8-0.2,1.59-0.41,2.39-0.56
		c0.09-0.02,0.18-0.02,0.27-0.02c0.71,0,1.34,0.5,1.47,1.22c0.15,0.81-0.41,1.56-1.2,1.74c-0.71,0.13-1.4,0.36-2.11,0.49
		c-2,0.57-3.9,1.41-5.67,2.51c-0.12,0.08-0.25,0.13-0.38,0.17C448.84,220.29,448.7,220.31,448.56,220.31 M494.97,213.72
		c-0.57,0-1.12-0.33-1.37-0.89c-0.33-0.75,0.01-1.63,0.77-1.96c2.66-1.16,5.21-2.57,7.6-4.18c0.26-0.17,0.55-0.25,0.83-0.25
		c0.48,0,0.95,0.23,1.24,0.66c0.46,0.68,0.28,1.61-0.4,2.07c-2.53,1.71-5.25,3.2-8.07,4.43l-0.19,0.07
		C495.24,213.7,495.1,213.72,494.97,213.72 M540.05,203.42c2.8,0,5.62-0.24,8.39-0.72c0.09-0.01,0.17-0.02,0.26-0.02
		c0.71,0,1.34,0.51,1.47,1.24c0.13,0.76-0.33,1.48-1.06,1.69l-0.16,0.03c-2.95,0.51-5.96,0.77-8.94,0.77c-0.08,0-0.16,0-0.23,0
		c-0.83,0-1.49-0.68-1.49-1.5c0-0.81,0.66-1.48,1.48-1.48c0.01,0,0.02,0,0.02,0C539.88,203.42,539.96,203.42,540.05,203.42
		 M608.76,204.63c-0.8,0-1.47-0.64-1.49-1.44c-0.03-0.83,0.61-1.51,1.44-1.54c2.89-0.1,5.79-0.45,8.61-1.06
		c0.11-0.02,0.21-0.03,0.32-0.03c0.69,0,1.31,0.48,1.46,1.18c0.17,0.77-0.3,1.54-1.05,1.75l-0.09,0.02c-3,0.65-6.07,1.03-9.14,1.13
		C608.79,204.63,608.77,204.63,608.76,204.63 M516.22,203.41c-0.75,0-1.4-0.57-1.48-1.33c-0.09-0.82,0.49-1.55,1.32-1.65
		c0.92-0.1,1.83-0.15,2.75-0.15c2.24,0,4.47,0.29,6.67,0.88c0.8,0.21,1.27,1.03,1.06,1.83c-0.14,0.53-0.55,0.91-1.04,1.05
		c-0.13,0.04-0.27,0.06-0.41,0.06c-0.13,0-0.25-0.02-0.38-0.05c-1.94-0.52-3.92-0.78-5.9-0.78c-0.81,0-1.62,0.04-2.44,0.13
		C516.33,203.41,516.27,203.41,516.22,203.41 M593.99,202.89c-0.13,0-0.27-0.02-0.4-0.05c-1.73-0.48-3.44-1.06-5.1-1.72
		c-1.13-0.45-2.22-0.94-3.29-1.46l0.44-1.45l0.66-1.34l0.21,0.1c1,0.49,2.04,0.95,3.09,1.37c1.56,0.62,3.17,1.16,4.79,1.62
		c0.79,0.22,1.26,1.04,1.04,1.84c-0.14,0.52-0.55,0.9-1.03,1.04C594.27,202.87,594.13,202.89,593.99,202.89 M562.79,200.93
		c-0.54,0-1.06-0.29-1.32-0.81c-0.38-0.73-0.09-1.63,0.64-2.01c0.44-0.23,0.88-0.46,1.32-0.7c2.29-1.27,4.83-2.17,7.41-2.64
		c0.09-0.02,0.18-0.02,0.27-0.02c0.71,0,1.34,0.51,1.47,1.23c0.15,0.81-0.38,1.57-1.2,1.74c-2.27,0.41-4.48,1.2-6.5,2.32
		c-0.46,0.25-0.92,0.5-1.39,0.74c-0.09,0.05-0.18,0.08-0.28,0.11C563.06,200.91,562.92,200.93,562.79,200.93 M631.53,198.27
		c-0.52,0-1.03-0.27-1.3-0.76c-0.4-0.72-0.15-1.63,0.57-2.03c2.52-1.41,4.93-3.06,7.14-4.91c0.28-0.23,0.62-0.34,0.95-0.34
		c0.43,0,0.85,0.18,1.15,0.54c0.53,0.64,0.44,1.58-0.19,2.1c-2.36,1.96-4.91,3.72-7.6,5.22c-0.1,0.06-0.21,0.1-0.32,0.13
		C631.8,198.26,631.67,198.27,631.53,198.27 M648.72,182.06c-0.27,0-0.55-0.08-0.8-0.23c-0.7-0.44-0.9-1.36-0.46-2.06
		c1.12-1.76,2.12-3.61,2.97-5.5c0.34-0.75,0.67-1.5,1-2.25c0.24-0.56,0.79-0.9,1.37-0.9c0.2,0,0.4,0.04,0.59,0.12
		c0.76,0.33,1.1,1.2,0.78,1.96c-0.33,0.77-0.67,1.53-1.02,2.3c-0.91,2.01-1.98,3.98-3.17,5.86c-0.2,0.32-0.51,0.54-0.85,0.64
		C648.99,182.04,648.85,182.06,648.72,182.06 M657.93,160.1c-0.14,0-0.29-0.02-0.43-0.06c-0.79-0.24-1.23-1.07-1-1.86
		c0.85-2.82,1.6-5.69,2.24-8.55c0.16-0.69,0.78-1.16,1.46-1.16c0.11,0,0.22,0.01,0.32,0.04c0.8,0.18,1.31,0.98,1.13,1.78
		c-0.66,2.93-1.43,5.88-2.3,8.76c-0.15,0.51-0.55,0.87-1.02,1.01C658.2,160.08,658.07,160.1,657.93,160.1 M635.37,130.85
		c-2.11,0-4.23,0.01-6.34,0.03c-0.62,7.1-2.06,14.56-4.6,22.26l0.03,0.1c2.91,10.2-3.01,20.83-13.21,23.73
		c-1.76,0.5-3.53,0.74-5.27,0.74c-8.37,0-16.06-5.51-18.47-13.95c-2.5-8.78,1.54-17.86,9.22-22.07l0,0l0,0
		c1.01-3.41,1.72-6.75,2.17-10c-14.06,0.64-28.09,1.64-42.05,3.01c0.16,6.08-0.08,12.37-0.89,18.74c0.4,0.88,0.77,1.79,1.04,2.75
		c2.91,10.2-3.01,20.83-13.21,23.73c-1.76,0.5-3.53,0.74-5.27,0.74c-8.37,0-16.06-5.51-18.47-13.95c-2.2-7.74,0.68-15.72,6.65-20.39
		l0,0l0,0c0.24-2.73,0.35-5.44,0.35-8.11c-13.59,1.87-27.09,4.1-40.45,6.69c0.78,4.01,1.49,8.08,2.11,12.15l0,0l0,0
		c2.01,2.16,3.57,4.8,4.43,7.83c2.91,10.2-3.01,20.83-13.21,23.73c-1.76,0.5-3.53,0.74-5.27,0.74c-8.37,0-16.06-5.51-18.47-13.95
		c-1.63-5.73-0.48-11.6,2.65-16.15c-0.44-2.7-0.92-5.39-1.44-8.06c-10.78,2.57-21.44,5.37-31.97,8.43
		c-2.53,0.73-5.05,1.48-7.57,2.25c1.39,3.65,2.85,7.31,4.4,10.9l0,0l0,0c4.43,2.37,7.94,6.45,9.42,11.67
		c2.91,10.2-3.01,20.83-13.21,23.73c-1.76,0.5-3.53,0.74-5.27,0.74c-8.37,0-16.06-5.51-18.47-13.95c-1.02-3.59-0.93-7.23,0.04-10.58
		c-1.87-4.37-3.64-8.8-5.29-13.19c-12.95,4.56-25.83,9.52-38.63,14.87c1.61,2.75,3.38,5.46,5.32,8.1l0,0l0,0
		c7.03,1.23,13.1,6.32,15.19,13.65c2.9,10.2-3.01,20.83-13.21,23.73c-1.76,0.5-3.53,0.74-5.27,0.74c-8.37,0-16.06-5.51-18.46-13.95
		c-0.41-1.45-0.63-2.91-0.7-4.36c-3.94-5.13-7.35-10.45-10.31-15.79c-13.48,6.27-26.82,12.95-39.98,20.01
		c2.54,3.39,5.54,6.72,9.04,9.88l0,0l0,0c0.77-0.09,1.55-0.14,2.31-0.14c8.36,0,16.05,5.49,18.46,13.93
		c2.9,10.2-3.01,20.83-13.21,23.73c-1.76,0.5-3.53,0.74-5.26,0.74c-7.84,0-15.08-4.84-17.94-12.39
		c-8.16-6.54-14.56-13.75-19.58-21.07c-9.29,5.44-18.47,11.06-27.53,16.85c1.13,1.72,2.29,3.43,3.5,5.08
		c0.49,0.66,0.34,1.6-0.32,2.09c-0.15,0.11-0.31,0.18-0.47,0.23c-0.13,0.04-0.27,0.06-0.41,0.06c-0.46,0-0.91-0.21-1.2-0.61
		c-1.25-1.7-2.44-3.46-3.6-5.23c-14.49,9.35-28.66,19.14-42.44,29.33c11.4,34.22,22.17,69.06,32.21,104.34
		c14.99,52.65,28.29,106.01,39.54,158.6c5.08,23.91,9.71,47.46,13.76,70l0.14,0.48l0,0c37.39,7.94,76.46,12.08,116.46,12.08
		c53.92,0,109.56-7.51,165.16-23.34c96.74-27.54,180.34-76.56,245.13-138.58l-0.13-0.48c-8.45-21.34-16.92-43.8-25.19-66.78
		c-18.15-50.66-34.96-103.05-49.96-155.73c-10.3-36.17-19.71-72.34-28.2-108.3c-9.74-0.7-19.52-1.23-29.32-1.58
		c-0.08,1.34-0.18,2.68-0.31,4.01c-0.06,0.63-0.5,1.13-1.08,1.29c-0.13,0.04-0.27,0.06-0.41,0.06c-0.05,0-0.09,0-0.14-0.01
		c-0.82-0.08-1.42-0.81-1.34-1.63c0.12-1.27,0.22-2.54,0.3-3.82C652.72,130.99,644.05,130.85,635.37,130.85"/>
	<path class="st0" d="M74.29,240.99C35.84,296.67,10.38,358.3,0.65,421.8c-1.95,12.73,0.51,25.67,6.73,36.74
		c-0.96-1.88-1.83-3.81-2.57-5.78l-0.14,0.21c-2.1-4.93-3.48-10.12-4.15-15.44c0.24-0.36,0.48-0.71,0.72-1.07
		c-0.28-4.06-0.15-8.16,0.45-12.25c0.02-0.14,0.05-0.28,0.07-0.42c27.2-39.36,60.15-76.83,97.34-111.33
		C91.14,288.29,82.86,264.42,74.29,240.99"/>
	<path class="st0" d="M211.87,214.18c-0.67,0-1.27-0.45-1.45-1.12c-0.75-2.92-1.4-5.9-1.94-8.84c-0.15-0.81,0.39-1.54,1.2-1.74
		c0.09-0.02,0.18-0.02,0.27-0.02c0.71,0,1.33,0.5,1.47,1.22c0.53,2.88,1.17,5.79,1.9,8.64c0.2,0.79-0.26,1.58-1.04,1.8l-0.04,0.01
		C212.12,214.17,211.99,214.18,211.87,214.18 M208.1,190.63c-0.78,0-1.44-0.61-1.49-1.4c-0.29-4.55-0.21-7.72-0.17-8.88l1.5-0.17
		l1.49,0.18c-0.05,1.22-0.12,4.26,0.16,8.68c0.05,0.71-0.42,1.34-1.08,1.53c-0.1,0.03-0.21,0.05-0.32,0.05
		C208.16,190.63,208.13,190.63,208.1,190.63 M211.03,167.16c-0.18,0-0.37-0.03-0.54-0.1c-0.77-0.3-1.14-1.17-0.84-1.94
		c1.12-2.86,2.54-5.62,4.2-8.22c0.28-0.44,0.76-0.69,1.26-0.69c0.28,0,0.55,0.08,0.8,0.24c0.69,0.44,0.9,1.37,0.45,2.06
		c-1.56,2.43-2.88,5.03-3.93,7.7c-0.18,0.45-0.55,0.77-0.98,0.89C211.31,167.14,211.17,167.16,211.03,167.16 M224.97,148.09
		c-0.43,0-0.86-0.19-1.15-0.55c-0.52-0.64-0.43-1.58,0.21-2.1c2.37-1.94,4.94-3.69,7.62-5.18c0.23-0.13,0.48-0.19,0.72-0.19
		c0.52,0,1.03,0.28,1.31,0.77c0.4,0.72,0.14,1.63-0.58,2.03c-2.53,1.4-4.94,3.04-7.17,4.87c-0.16,0.13-0.35,0.23-0.54,0.28
		C225.24,148.07,225.1,148.09,224.97,148.09 M246.29,137.87c-0.69,0-1.31-0.48-1.46-1.18c-0.17-0.81,0.33-1.58,1.15-1.77
		c2.99-0.64,6.07-1.01,9.14-1.11c0.02,0,0.03,0,0.05,0c0.8,0,1.47,0.64,1.49,1.45c0.02,0.7-0.44,1.3-1.08,1.48
		c-0.12,0.03-0.24,0.05-0.36,0.06c-2.89,0.09-5.79,0.44-8.61,1.04C246.5,137.86,246.39,137.87,246.29,137.87 M269.75,134.54
		c-0.56,0-1.1-0.32-1.35-0.85c-0.35-0.75-0.03-1.64,0.71-1.99c2.57-1.22,4.83-2.87,6.71-4.92c0.29-0.32,0.69-0.49,1.1-0.49
		c0.36,0,0.72,0.13,1.01,0.4c0.61,0.56,0.65,1.5,0.09,2.11c-2.15,2.34-4.71,4.23-7.63,5.61l-0.23,0.09
		C270.02,134.52,269.89,134.54,269.75,134.54 M285.62,117.19c-0.35,0-0.71-0.12-0.99-0.38c-0.62-0.55-0.67-1.49-0.13-2.11
		c2.03-2.29,4.3-4.41,6.73-6.3c0.27-0.21,0.59-0.31,0.91-0.31c0.44,0,0.89,0.2,1.18,0.57c0.51,0.65,0.39,1.59-0.26,2.1
		c-2.29,1.78-4.41,3.77-6.32,5.92c-0.2,0.22-0.44,0.37-0.71,0.44C285.9,117.17,285.76,117.19,285.62,117.19 M305.13,103.83
		c-0.61,0-1.18-0.36-1.4-0.96c-0.29-0.77,0.1-1.63,0.88-1.92c2.83-1.06,5.84-1.9,8.87-2.45c0.09-0.02,0.18-0.02,0.27-0.02
		c0.71,0,1.34,0.5,1.47,1.23c0.14,0.76-0.33,1.49-1.06,1.7l-0.14,0.03c-2.86,0.52-5.69,1.31-8.37,2.31
		C305.48,103.8,305.3,103.83,305.13,103.83 M333.39,101.42c-1.26,0-2.51-0.09-3.76-0.28c-0.4-0.06-0.8-0.11-1.21-0.16
		c-0.82-0.1-1.4-0.85-1.3-1.66c0.09-0.76,0.74-1.31,1.49-1.31c0.06,0,0.12,0,0.18,0.01c0.43,0.05,0.85,0.11,1.28,0.17
		c1.11,0.16,2.22,0.25,3.33,0.25c1.29,0,2.58-0.11,3.86-0.33c0.09-0.01,0.17-0.02,0.26-0.02c0.71,0,1.34,0.51,1.47,1.24
		c0.13,0.76-0.34,1.48-1.06,1.69l-0.16,0.04C336.32,101.3,334.86,101.42,333.39,101.42 M350.49,94.24c-0.37,0-0.74-0.14-1.03-0.41
		c-0.59-0.57-0.62-1.51-0.05-2.11c0.42-0.44,0.83-0.91,1.21-1.39c1.49-1.87,3.13-3.64,4.88-5.28c0.29-0.27,0.65-0.4,1.02-0.4
		c0.4,0,0.8,0.16,1.09,0.47c0.56,0.6,0.53,1.55-0.07,2.11c-1.64,1.54-3.18,3.21-4.58,4.96c-0.44,0.55-0.9,1.08-1.39,1.59
		c-0.19,0.2-0.42,0.34-0.67,0.41C350.77,94.22,350.63,94.24,350.49,94.24 M657.88,89.5c-0.64,0-1.24-0.42-1.43-1.07
		c-0.83-2.81-1.77-5.63-2.8-8.4c-0.29-0.77,0.11-1.63,0.88-1.92c0.17-0.07,0.35-0.1,0.52-0.1c0.6,0,1.17,0.38,1.39,0.98
		c1.05,2.83,2.01,5.72,2.86,8.59c0.23,0.79-0.22,1.62-1.01,1.85l-0.01,0C658.16,89.48,658.02,89.5,657.88,89.5 M368.8,79.25
		c-0.56,0-1.09-0.31-1.35-0.85c-0.36-0.74-0.04-1.63,0.7-1.99c2.6-1.24,5.33-2.28,8.11-3.07l0.53-0.15
		c0.13-0.03,0.26-0.05,0.38-0.05c0.66,0,1.26,0.44,1.44,1.11c0.21,0.79-0.25,1.6-1.03,1.82l-0.02,0.01l-0.48,0.13
		c-2.62,0.75-5.19,1.72-7.64,2.89l-0.24,0.09C369.07,79.23,368.93,79.25,368.8,79.25 M400.82,75.31c-0.05,0-0.1,0-0.15-0.01
		c-0.68-0.07-1.35-0.17-2.03-0.29c-2.21-0.39-4.49-0.62-6.75-0.69c-0.82-0.03-1.47-0.71-1.45-1.54c0.02-0.81,0.69-1.45,1.49-1.45
		c0.02,0,0.03,0,0.05,0c2.41,0.07,4.82,0.32,7.18,0.73c0.61,0.11,1.22,0.2,1.82,0.26c0.82,0.09,1.41,0.83,1.32,1.64
		c-0.07,0.62-0.51,1.11-1.07,1.28C401.1,75.29,400.96,75.31,400.82,75.31 M415.44,73.14c-0.59,0-1.15-0.35-1.38-0.93
		c-0.31-0.76,0.06-1.63,0.82-1.94c2.62-1.06,5.12-2.48,7.43-4.21c0.27-0.2,0.58-0.3,0.89-0.3c0.45,0,0.9,0.21,1.2,0.6
		c0.5,0.66,0.36,1.59-0.3,2.09c-2.52,1.89-5.24,3.44-8.1,4.59l-0.15,0.05C415.71,73.12,415.57,73.14,415.44,73.14 M483.77,55.65
		c2.11,0,4.22-0.32,6.24-0.85c0.15-0.04,0.3-0.06,0.45-0.06c0.66,0,1.33,0.38,1.53,1.01c0.25,0.79-0.05,1.58-0.83,1.83l-0.36,0.11
		c-2.26,0.64-4.55,0.96-6.86,0.96c-0.74,0-1.48-0.03-2.22-0.1c-0.82-0.08-1.43-0.8-1.35-1.62c0.07-0.78,0.73-1.36,1.5-1.36
		c0.04,0,0.08,0,0.12,0.01C482.58,55.62,483.18,55.65,483.77,55.65 M435.45,60.31c-0.56,0-1.09-0.31-1.35-0.85
		c-0.35-0.74-0.03-1.64,0.71-1.99c2.5-1.18,5.21-2.2,8.07-3.01c0.15-0.04,0.32-0.07,0.49-0.07c0.69,0,1.42,0.35,1.62,0.97
		c0.25,0.79,0.09,1.55-0.7,1.79l-0.35,0.1c-3.03,0.82-5.52,1.79-7.86,2.9l-0.23,0.09C435.72,60.29,435.58,60.31,435.45,60.31
		 M458.46,54.53c-0.8,0-1.47-0.64-1.49-1.45c-0.03-0.82,0.62-1.53,1.45-1.54c0.52-0.02,1.04-0.02,1.56-0.02
		c2.56,0,5.12,0.2,7.63,0.58c0.82,0.12,1.38,0.89,1.25,1.7c-0.09,0.6-0.52,1.05-1.07,1.21c-0.13,0.04-0.27,0.06-0.41,0.06
		c-0.07,0-0.15-0.01-0.22-0.02c-2.38-0.37-4.8-0.55-7.22-0.55c-0.48,0-0.95,0.01-1.43,0.02C458.49,54.53,458.47,54.53,458.46,54.53
		 M649.07,67.34c-0.54,0-1.07-0.3-1.33-0.81c-1.77-3.47-3.33-6.09-4.33-7.68c-0.2-0.32-0.26-0.68-0.21-1.02
		c-0.33-0.09-0.64-0.3-0.84-0.6c-1.62-2.39-3.47-4.63-5.52-6.65c-0.59-0.58-0.59-1.52-0.02-2.11c0.29-0.3,0.68-0.45,1.06-0.45
		c0.38,0,0.76,0.14,1.05,0.43c2.19,2.15,4.18,4.55,5.9,7.11c0.22,0.32,0.29,0.7,0.24,1.06c0.35,0.09,0.66,0.32,0.87,0.65
		c1.03,1.64,2.64,4.35,4.46,7.91c0.37,0.73,0.08,1.63-0.65,2.01c-0.09,0.05-0.18,0.08-0.27,0.11
		C649.34,67.32,649.2,67.34,649.07,67.34 M503.35,49.92c-0.48,0-0.94-0.23-1.23-0.65c-0.47-0.68-0.29-1.61,0.39-2.07
		c2.05-1.41,4.25-2.68,6.53-3.79c0.49-0.24,1-0.48,1.5-0.71c0.2-0.08,0.41-0.12,0.61-0.12c0.58,0,1.11,0.31,1.36,0.87
		c0.34,0.75,0,1.64-0.75,1.97c-0.48,0.22-0.96,0.44-1.43,0.67c-2.15,1.05-4.22,2.24-6.15,3.56c-0.14,0.1-0.28,0.16-0.44,0.21
		C503.62,49.9,503.49,49.92,503.35,49.92 M557.15,47.98c-0.15,0-0.31-0.02-0.46-0.07c-1.35-0.44-2.68-0.99-3.95-1.63
		c-1.41-0.72-2.87-1.37-4.34-1.93c-0.77-0.3-1.16-1.16-0.86-1.93c0.23-0.59,0.79-0.96,1.39-0.96c0.18,0,0.36,0.03,0.53,0.1
		c1.56,0.6,3.12,1.29,4.63,2.06c1.12,0.57,2.3,1.07,3.51,1.46c0.78,0.25,1.21,1.09,0.96,1.88c-0.16,0.49-0.55,0.84-1.01,0.98
		C557.42,47.96,557.28,47.98,557.15,47.98 M571.84,48.24c-0.65,0-1.24-0.42-1.43-1.08c-0.23-0.79,0.22-1.62,1.02-1.85
		c2.04-0.59,3.98-1.47,5.77-2.59c0.73-0.46,1.33-0.82,1.93-1.16c0.23-0.13,0.49-0.2,0.74-0.2c0.52,0,1.02,0.27,1.3,0.75
		c0.41,0.71,0.16,1.63-0.55,2.04c-0.57,0.33-1.13,0.66-1.68,1.01c-2.17,1.37-4.36,2.36-6.67,3.03l-0.01,0
		C572.12,48.22,571.98,48.24,571.84,48.24 M525.47,41.57c-0.74,0-1.39-0.56-1.48-1.31c-0.1-0.82,0.48-1.55,1.3-1.66
		c2.05-0.25,4.12-0.38,6.18-0.38c1.01,0,2.02,0.03,3.03,0.09c0.82,0.05,1.45,0.76,1.4,1.58c-0.04,0.65-0.49,1.18-1.08,1.35
		c-0.13,0.04-0.26,0.06-0.4,0.06c-0.03,0-0.06,0-0.09,0c-0.94-0.06-1.89-0.08-2.84-0.08c-1.94,0-3.89,0.12-5.82,0.35
		C525.59,41.56,525.53,41.57,525.47,41.57 M625.73,42.45c-0.22,0-0.44-0.05-0.65-0.15c-2.58-1.25-5.31-2.26-8.11-3.01
		c-0.8-0.21-1.27-1.03-1.05-1.83c0.18-0.66,0.78-1.11,1.44-1.11c0.13,0,0.26,0.02,0.39,0.05c2.98,0.8,5.89,1.88,8.64,3.21
		c0.74,0.36,1.05,1.25,0.69,1.99c-0.19,0.4-0.54,0.67-0.93,0.78C626.01,42.43,625.87,42.45,625.73,42.45 M593.72,38.95
		c-0.68,0-1.29-0.47-1.45-1.16c-0.18-0.8,0.3-1.63,1.12-1.78c3-0.68,6.07-1.1,9.12-1.24c0.02,0,0.05,0,0.07,0
		c0.79,0,1.45,0.62,1.49,1.42c0.03,0.7-0.43,1.32-1.08,1.5c-0.11,0.03-0.22,0.05-0.34,0.05c-2.88,0.13-5.77,0.52-8.6,1.17
		C593.94,38.94,593.83,38.95,593.72,38.95 M552.2,0c-53.92,0-109.56,7.51-165.15,23.34c-96.85,27.57-180.54,76.68-245.36,138.8
		l0.15,0.38c11.37,28.75,22.29,58.2,32.72,88.18l0,0l0,0c22.3-16.1,45.53-31.17,69.47-45.05c-3.05-9.57-4.26-17.93-4.74-23.49
		c-0.88-1.44-1.59-3.01-2.08-4.72c-2.91-10.2,3.01-20.83,13.21-23.73c1.76-0.5,3.53-0.74,5.27-0.74c8.37,0,16.06,5.51,18.46,13.95
		c1.91,6.72-0.02,13.62-4.47,18.38c0.11,0.7,0.24,1.43,0.39,2.19l0,0c9.41-5.74,22.8-13.31,40.08-21.62
		c-2.03-7-3.32-13.1-4.12-17.62c-1.99-2.15-3.52-4.76-4.38-7.77c-2.9-10.2,3.01-20.83,13.21-23.73c1.76-0.5,3.53-0.74,5.27-0.74
		c8.37,0,16.06,5.51,18.47,13.95c1.62,5.7,0.49,11.52-2.6,16.06c0.44,2.19,1.01,4.71,1.72,7.48l0,0
		c12.33-5.15,25.99-10.38,40.94-15.45c-1.5-5.28-2.72-9.92-3.66-13.63c-3.18-2.43-5.64-5.84-6.82-9.98
		c-2.9-10.2,3.01-20.83,13.21-23.73c1.76-0.5,3.53-0.74,5.27-0.74c8.37,0,16.06,5.51,18.46,13.95c1.32,4.66,0.8,9.39-1.12,13.45
		c0.82,3.22,1.87,7.21,3.15,11.71l0,0l0,0c13.28-3.87,27.37-7.55,42.29-10.93c-0.83-2.93-1.63-5.63-2.37-8.06
		c-5.85-1.93-10.66-6.62-12.48-12.99c-2.91-10.2,3.01-20.83,13.21-23.73c1.76-0.5,3.53-0.74,5.27-0.74
		c8.37,0,16.06,5.51,18.47,13.95c0.39,1.38,0.61,2.77,0.69,4.14l0,0l0,0c1.4,4.21,3.85,11.83,6.53,21.42l0,0l0,0
		c13.88-2.56,28.37-4.84,43.46-6.76c-0.71-2.55-1.45-4.91-2.16-7.05c-6.53-1.56-12.05-6.5-14.02-13.42
		c-2.91-10.2,3.01-20.83,13.21-23.73c1.76-0.5,3.53-0.74,5.27-0.74c8.37,0,16.06,5.51,18.46,13.95c0.11,0.38,0.18,0.75,0.26,1.13
		l0,0l0,0c2.05,4.64,5.91,14.18,9,26.61l0,0l0,0c14.1-1.26,28.66-2.21,43.7-2.76c-0.68-2.15-1.4-4.1-2.11-5.83
		c-7.13-1.15-13.32-6.28-15.43-13.69c-2.91-10.2,3.01-20.83,13.21-23.73c1.75-0.5,3.52-0.74,5.26-0.74c6.83,0,13.2,3.68,16.63,9.63
		l0,0l0,0c0.94,1.41,1.68,2.99,2.17,4.71c0.11,0.38,0.18,0.75,0.26,1.13l0,0l0,0c2.68,4.72,8.05,15.42,11.13,29.87l0,0l0,0
		c3.03-0.03,6.06-0.05,9.08-0.05c8.36,0,16.71,0.13,25.04,0.38l0,0l0.25,0.01l0,0c8.4,0.26,16.8,0.64,25.17,1.15
		c-6.71-30.16-12.75-60.13-18.09-89.76l-0.07-0.41C631.13,4.12,592.14,0,552.2,0"/>
	<path class="st0" d="M767.31,43.51c4.81,23.29,10.05,46.81,15.69,70.44l0,0l0,0c48.83,9.04,95.76,22.67,139.06,40.77
		C880.76,107.59,827.8,69.89,767.31,43.51"/>
	<path class="st0" d="M790.92,146.13c5.91,23.34,12.2,46.74,18.85,70.1c11.26,39.54,23.46,78.69,36.27,116.38
		c6.03,17.84,12.29,35.6,18.61,52.78l0,0l0,0c38.27-55.36,63.7-116.6,73.58-179.72c0.82-5.26,0.93-10.55,0.36-15.73
		c0.11,1.64,0.16,3.28,0.14,4.93l-4.58-2.18C890.72,172.06,842.14,156.49,790.92,146.13"/>
	<path class="st0" d="M922.06,154.73c0.82,0.93,1.65,1.86,2.46,2.8c3.79,4.41,6.86,9.3,9.19,14.48c0,0,0,0,0,0
		c0.45,1,0.87,2.01,1.26,3.04c0,0.01,0.01,0.02,0.01,0.04c0.01,0.04,0.03,0.07,0.04,0.11c0.01,0.03,0.02,0.06,0.04,0.09
		c0,0.01,0.01,0.02,0.01,0.03c0.01,0.03,0.02,0.06,0.03,0.09c0.02,0.04,0.03,0.08,0.05,0.12c0.04,0.1,0.08,0.21,0.12,0.31
		c0.33,0.89,0.64,1.8,0.92,2.7c0.29,0.91,0.55,1.82,0.79,2.75l0,0c0.03,0.11,0.06,0.23,0.09,0.34c0.31,1.19,0.57,2.39,0.81,3.6
		l0.02,0.11c0.01,0.05,0.02,0.09,0.03,0.14c0,0.01,0,0.02,0.01,0.03c0.01,0.03,0.01,0.06,0.02,0.09c0.27,1.44,0.49,2.89,0.65,4.35
		c-0.86-12.4-5.56-24.3-13.65-34.02C923.98,155.52,923.02,155.13,922.06,154.73"/>
	<path class="st0" d="M7.38,458.54c1.02,2,2.15,3.96,3.4,5.84l0.17-0.27C9.65,462.32,8.46,460.46,7.38,458.54"/>
	<path class="st0" d="M101.66,320.19C62.73,356.25,28.64,395.46,1.24,436.45c0.39,5.59,1.59,11.08,3.56,16.3
		c26.97-42.32,61.29-82.86,100.87-120.09C104.35,328.5,103.01,324.34,101.66,320.19"/>
	<path class="st0" d="M246.88,213.52c-9.3,5.37-18.5,10.92-27.58,16.64c0.62,1.47,1.26,2.93,1.93,4.36
		c0.35,0.75,0.02,1.64-0.72,1.98l-0.22,0.08c-0.13,0.04-0.27,0.06-0.41,0.06c-0.56,0-1.1-0.32-1.35-0.86
		c-0.61-1.32-1.21-2.66-1.78-4.01c-13.44,8.54-26.62,17.46-39.48,26.71c1.34,3.91,2.68,7.82,4.01,11.75l0,0l0,0
		c22.65-16.44,46.31-31.82,70.72-45.93C250,220.66,248.31,217.04,246.88,213.52"/>
	<path class="st0" d="M785.78,125.47c1.03,4.24,2.08,8.48,3.14,12.72l0,0l0,0c53.35,10.82,103.99,27.26,149.31,49.09
		c-0.09-0.56-0.18-1.13-0.29-1.69c-0.01-0.03-0.01-0.06-0.02-0.09c0-0.01,0-0.02-0.01-0.03c-0.01-0.05-0.02-0.09-0.03-0.14
		l-0.02-0.11c-0.23-1.21-0.5-2.41-0.81-3.6c-0.03-0.11-0.06-0.23-0.09-0.34l0,0c-0.24-0.92-0.51-1.84-0.79-2.75
		c-0.29-0.91-0.59-1.81-0.92-2.7c-0.04-0.1-0.08-0.21-0.12-0.31c-0.01-0.04-0.03-0.08-0.05-0.12c-0.01-0.03-0.02-0.06-0.03-0.09
		c0-0.01-0.01-0.02-0.01-0.03c-0.01-0.03-0.02-0.06-0.04-0.09c-0.01-0.04-0.03-0.07-0.04-0.11c0-0.01-0.01-0.02-0.01-0.04
		c-0.39-1.02-0.81-2.03-1.26-3.04C888.46,151.3,838.36,135.72,785.78,125.47"/>
	<path class="st1" d="M937.93,185.5c0.01,0.03,0.01,0.06,0.02,0.09C937.94,185.56,937.93,185.53,937.93,185.5 M936.98,181.28
		L936.98,181.28c0.03,0.11,0.06,0.23,0.09,0.34c0.31,1.19,0.57,2.39,0.81,3.6l0.02,0.11c0.01,0.05,0.02,0.09,0.03,0.14
		c-0.01-0.05-0.02-0.09-0.03-0.14l-0.02-0.11c-0.23-1.21-0.5-2.41-0.81-3.6C937.04,181.51,937.01,181.4,936.98,181.28L936.98,181.28
		 M935.1,175.4c0.02,0.04,0.03,0.08,0.05,0.12c0.04,0.1,0.08,0.21,0.12,0.31c0.33,0.89,0.64,1.8,0.92,2.7
		c-0.29-0.91-0.59-1.81-0.92-2.7c-0.04-0.1-0.08-0.21-0.12-0.31C935.13,175.49,935.12,175.44,935.1,175.4 M935.06,175.28
		c0,0.01,0.01,0.02,0.01,0.03C935.07,175.31,935.06,175.3,935.06,175.28 M934.98,175.08c0.01,0.04,0.03,0.07,0.04,0.11
		C935.01,175.15,934.99,175.12,934.98,175.08 M933.7,172.01c0.45,1,0.87,2.01,1.26,3.04C934.57,174.02,934.16,173.01,933.7,172.01
		L933.7,172.01"/>
	<path class="st0" d="M631.94,110.83c-1.06,0-2.13,0-3.19,0.01c0.43,3.79,0.67,7.76,0.65,11.88c0.9,0,1.8,0,2.7,0
		c19.97,0,39.91,0.74,59.7,2.2c-0.94-4.04-1.87-8.07-2.78-12.1c-8.32-0.58-16.67-1.03-25.03-1.35c-0.03,0.64-0.44,1.2-1.06,1.37
		l-0.26,0.05c-0.05,0.01-0.1,0.01-0.15,0.01c-0.76,0-1.41-0.57-1.48-1.34l-0.02-0.21C651.33,111,641.63,110.83,631.94,110.83"/>
	<path class="st0" d="M141.3,161.13l-1.07,1.03c-24.89,23.95-47.11,49.96-66.04,77.28l-0.29,0.43l0.18,0.49
		c0.08,0.21,0.15,0.42,0.23,0.63c19.31-27.96,41.9-54.41,67.4-78.86L141.3,161.13"/>
	<path class="st0" d="M171.53,582.55c0.05,0.22,0.09,0.45,0.14,0.67l0.1,0.51l0.47,0.21c2.72,1.2,5.46,2.36,8.12,3.44
		c1.98,0.85,4.09,1.7,6.82,2.75c2.13,0.87,4.32,1.73,6.52,2.54c2.58,0.98,5.15,1.92,7.75,2.86c1.7,0.61,3.39,1.21,5.11,1.81
		c5.86,2.04,10.78,3.67,15.48,5.14c2.49,0.78,4.98,1.54,7.49,2.28c2.74,0.8,5.49,1.6,8.26,2.4l0.1,0.02
		c0.07,0.01,0.14,0.02,0.31,0.08c2.91,0.8,5.86,1.59,8.78,2.35c2.52,0.65,5.03,1.27,7.56,1.89c3.91,0.95,7.9,1.88,11.92,2.78
		c0.45,0.09,0.87,0.18,1.24,0.26c0.47,0.13,0.92,0.23,1.41,0.32l1.6,0.28l-0.3-1.04l0,0c-0.51-0.11-1.03-0.22-1.54-0.33
		c-0.21-0.04-0.42-0.09-0.63-0.13c-0.39-0.08-0.78-0.17-1.17-0.25c-0.14-0.03-0.28-0.06-0.42-0.09l-0.12-0.03
		c-8.73-1.92-17.36-4.05-25.9-6.39c-0.72-0.2-1.44-0.38-2.16-0.58c-0.14-0.05-0.27-0.08-0.4-0.1c-1.69-0.49-3.37-0.98-5.05-1.47
		c-3.17-0.92-6.33-1.86-9.47-2.84c-0.4-0.12-0.81-0.24-1.21-0.37l-0.12-0.04c-2.12-0.66-4.23-1.35-6.33-2.04
		c-0.53-0.17-1.06-0.34-1.58-0.51c-4.13-1.37-8.23-2.79-12.31-4.26l-0.22-0.08c-0.19-0.07-0.38-0.14-0.57-0.21
		c-2.31-0.83-4.6-1.68-6.89-2.54c-0.09-0.03-0.18-0.07-0.28-0.1c-0.35-0.13-0.69-0.28-1.04-0.41c-2.45-0.94-4.89-1.89-7.32-2.86
		c-1.21-0.48-2.41-0.97-3.62-1.47c-1.51-0.62-3.03-1.24-4.53-1.88c-1-0.42-1.99-0.84-2.99-1.28
		C173.55,583.4,172.53,582.98,171.53,582.55"/>
	<path class="st0" d="M181.28,270.23L181.28,270.23L181.28,270.23c-26.76,19.43-52.11,40.35-75.6,62.44
		c1.23,3.83,2.46,7.65,3.67,11.49c23.36-22.43,48.66-43.71,75.42-63.5C183.61,277.18,182.45,273.7,181.28,270.23"/>
	<path class="st0" d="M174.57,250.7L174.57,250.7L174.57,250.7c-26.6,19.21-51.88,39.88-75.46,61.75c0.85,2.58,1.71,5.16,2.55,7.74
		c23.57-21.83,48.91-42.5,75.61-61.71C176.37,255.88,175.47,253.29,174.57,250.7"/>
	<path class="st0" d="M864.64,385.38L864.64,385.38L864.64,385.38c-1.03,1.49-2.09,2.97-3.14,4.45c-0.39,0.55-0.77,1.11-1.17,1.67
		c-0.21,0.29-0.42,0.59-0.64,0.89c-2.59,3.61-5.25,7.19-7.95,10.75c-0.87,1.16-1.74,2.32-2.62,3.47c-0.12,0.13-0.24,0.25-0.32,0.4
		c-1.19,1.51-2.39,3.03-3.59,4.55c-2.7,3.41-5.44,6.79-8.24,10.14c-1.21,1.45-2.43,2.9-3.67,4.33c-1.25,1.46-2.52,2.92-3.79,4.37
		c-0.26,0.3-0.52,0.61-0.79,0.91c-0.39,0.44-0.79,0.89-1.19,1.34c-1.28,1.44-2.57,2.88-3.86,4.31c-0.15,0.17-0.31,0.34-0.46,0.51
		c-0.89,1-1.82,2.01-2.74,3.01l-0.05,0.06c-5.41,5.87-10.99,11.64-16.71,17.31c-0.37,0.36-0.73,0.73-1.09,1.1
		c-0.19,0.19-0.39,0.38-0.58,0.57c-1.61,1.58-3.24,3.15-4.88,4.72l0.31,1.11l1.21-1.16c0.83-0.8,1.64-1.59,2.43-2.39
		c0.26-0.24,0.51-0.47,0.74-0.69c0.24-0.24,1.24-1.2,1.48-1.44c3.57-3.52,7.19-7.2,11.07-11.24c1.91-2.01,3.8-4,5.69-6.04l0.08-0.09
		c0.34-0.38,0.68-0.75,1.06-1.13l0.12-0.13c0.89-0.97,1.77-1.94,2.62-2.88c0.91-0.98,1.81-1.98,2.72-3.02
		c0.7-0.77,1.39-1.56,2.07-2.33l0.74-0.84c0.94-1.08,1.88-2.15,2.77-3.21c1.95-2.21,3.97-4.58,6.16-7.23
		c2.09-2.51,3.94-4.77,5.64-6.92c1.6-1.98,3.19-4,4.76-6l0.82-1.04l0.04-0.07c0.02-0.04,0.11-0.13,0.24-0.28
		c3.58-4.62,7.04-9.27,10.3-13.84c0.2-0.3,0.42-0.6,0.63-0.89l0.3-0.4c1.21-1.66,2.39-3.35,3.62-5.11l0.27-0.39l-0.17-0.59
		C864.8,385.8,864.72,385.59,864.64,385.38"/>
	<path class="st0" d="M668.28,10.98l0.19,1.06c34.56,7.33,67.7,17.89,98.84,31.48c-0.05-0.23-0.1-0.46-0.15-0.69l-0.11-0.51
		l-0.48-0.21c-30.73-13.29-63.31-23.66-96.85-30.81L668.28,10.98"/>
	<path class="st0" d="M691.79,124.91c0.62,2.68,1.26,5.36,1.89,8.04c33.03,2.38,65.63,6.79,97.24,13.18c-0.67-2.65-1.34-5.29-2-7.94
		l0,0l0,0C757.32,131.78,724.76,127.34,691.79,124.91"/>
	<path class="st0" d="M686.63,102.21c0.79,3.53,1.57,7.06,2.37,10.6c32.81,2.28,65.24,6.51,96.78,12.66
		c-0.94-3.84-1.86-7.68-2.78-11.52l0,0l0,0C751.52,108.12,719.24,104.2,686.63,102.21"/>
	<path class="st0" d="M523.07,108.47c-14.54,2.03-28.98,4.45-43.29,7.28c0.78,2.87,1.57,5.88,2.35,9.01l0,0l0,0
		c14.21-2.71,28.56-5.03,43-6.95C524.52,114.52,523.82,111.4,523.07,108.47"/>
	<path class="st0" d="M596.64,101.61c-14.61,0.7-29.19,1.78-43.72,3.25c0.7,3.05,1.35,6.25,1.92,9.58l0,0l0,0
		c14.6-1.38,29.26-2.37,43.95-2.96C598.25,107.91,597.5,104.61,596.64,101.61"/>
	<path class="st0" d="M311.6,170.56c-12.75,5.88-25.38,12.11-37.84,18.66c0.78,2.47,1.75,5.13,2.97,7.89l0,0l0,0
		c12.42-6.5,25-12.66,37.7-18.48C313.37,175.87,312.43,173.17,311.6,170.56"/>
	<path class="st0" d="M380.06,142.84c-12.77,4.47-25.47,9.3-38.08,14.48c0.93,2.56,1.97,5.25,3.18,8.03l0,0l0,0
		c12.41-5.05,24.91-9.76,37.47-14.1C381.71,148.34,380.85,145.52,380.06,142.84"/>
	<path class="st0" d="M286.07,212.81c-0.01,0.01-0.02,0.01-0.03,0.02L286.07,212.81L286.07,212.81 M319.06,189.62
		c-12.36,5.67-24.61,11.66-36.7,17.98c1.13,1.74,2.36,3.48,3.71,5.21c8.26-4.97,20-11.56,35.1-18.87
		C320.43,192.49,319.73,191.05,319.06,189.62"/>
	<path class="st0" d="M386.38,162.57c-12.06,4.17-24.06,8.68-35.97,13.51c0.7,1.28,1.44,2.56,2.21,3.84l-0.09,0.04
		c10.75-4.41,22.52-8.88,35.32-13.24C387.35,165.33,386.86,163.94,386.38,162.57"/>
	<path class="st0" d="M286.04,212.82c-1.63,0.98-3.11,1.89-4.47,2.74l0,0l0,0l0,0C282.93,214.72,284.41,213.8,286.04,212.82"/>
	<path class="st0" d="M272.77,185.87c-0.93,0.56-1.82,1.1-2.68,1.62c0.2,1.05,0.44,2.16,0.71,3.3l0,0l0,0
		c0.99-0.52,1.97-1.05,2.96-1.57C273.39,188.07,273.06,186.94,272.77,185.87"/>
	<path class="st0" d="M276.72,197.12L276.72,197.12L276.72,197.12c-1.17,0.61-2.34,1.22-3.51,1.84c1.24,3.49,2.84,7.17,4.88,10.89
		l0,0l0,0c1.42-0.75,2.84-1.5,4.27-2.25C280.06,204.05,278.21,200.51,276.72,197.12"/>
	<path class="st0" d="M352.53,179.95c-1.38,0.57-2.76,1.14-4.11,1.7l0,0l0,0l0,0C349.78,181.09,351.14,180.52,352.53,179.95"/>
	<path class="st0" d="M340.3,152.44c-0.87,0.36-1.72,0.71-2.57,1.07c0.41,1.59,0.87,3.26,1.39,4.99l0,0l0,0
		c0.95-0.4,1.91-0.79,2.86-1.18C341.37,155.63,340.8,153.99,340.3,152.44"/>
	<path class="st0" d="M345.16,165.35L345.16,165.35L345.16,165.35c-1.11,0.45-2.22,0.9-3.33,1.35c1.3,3.57,2.83,7.27,4.61,11l0,0
		l0,0c1.32-0.55,2.65-1.09,3.97-1.62C348.41,172.45,346.67,168.84,345.16,165.35"/>
	<path class="st0" d="M450.56,122.12c-11.25,2.69-22.41,5.63-33.44,8.84c-2.89,0.84-5.79,1.71-8.68,2.59
		c0.8,2.72,1.66,5.57,2.59,8.53l0,0l0,0c3.02-0.91,6.05-1.8,9.07-2.66c10.81-3.08,21.74-5.9,32.77-8.47
		C452.11,127.87,451.33,124.92,450.56,122.12"/>
	<path class="st0" d="M455.64,142.55c-10.86,2.53-21.62,5.31-32.25,8.34c-2.86,0.82-5.72,1.65-8.58,2.51
		c0.5,1.43,1.01,2.88,1.54,4.33l0,0l0,0c12.66-3.68,26.08-7.2,40.31-10.43C456.32,145.7,455.98,144.12,455.64,142.55"/>
	<path class="st0" d="M526.69,129.63c-14.05,1.87-28.01,4.12-41.85,6.75c0.36,1.63,0.71,3.26,1.05,4.92l0,0l0,0
		c13.14-2.42,26.85-4.57,41.11-6.38C526.94,133.14,526.83,131.38,526.69,129.63"/>
	<path class="st0" d="M599.55,123.37c-14.43,0.58-28.84,1.54-43.19,2.89c0.16,1.8,0.29,3.62,0.38,5.47l0,0l0,0
		c13.7-1.21,27.86-2.09,42.47-2.59l0,0l0,0C599.4,127.17,599.51,125.25,599.55,123.37"/>
	<path class="st0" d="M455.14,74.25c-1.53,0-3.08,0.21-4.61,0.65c-8.94,2.54-14.12,11.85-11.57,20.79c1.1,3.85,3.46,7,6.5,9.14
		c-1.51-4.76-2.52-7.62-2.55-7.72c-2.75-7.77,1.33-16.29,9.1-19.04c1.65-0.58,3.33-0.86,4.98-0.86c6.15,0,11.9,3.83,14.07,9.95
		c0.08,0.22,0.38,1.08,0.86,2.49c-0.09-1.06-0.28-2.12-0.58-3.18C469.2,79.08,462.47,74.25,455.14,74.25"/>
	<path class="st0" d="M526.25,62.34c-1.52,0-3.07,0.21-4.6,0.65c-8.94,2.54-14.12,11.85-11.57,20.79c1.33,4.67,4.51,8.3,8.52,10.35
		c-1.92-5.17-3.41-8.26-3.46-8.36c-3.64-7.38-0.62-16.33,6.75-19.98c2.13-1.06,4.39-1.57,6.62-1.57c4.75,0,9.34,2.29,12.17,6.32
		C537.64,65.47,532.14,62.34,526.25,62.34"/>
	<path class="st0" d="M387.06,93.64c-1.53,0-3.08,0.21-4.62,0.65c-8.94,2.54-14.12,11.85-11.57,20.79c0.68,2.39,1.86,4.51,3.37,6.28
		c-0.88-3.61-1.38-5.85-1.46-6.22c-1.76-8.05,3.31-16.05,11.39-17.76c1.07-0.23,2.15-0.35,3.2-0.35c6.86,0,13.03,4.76,14.56,11.74
		c0.02,0.09,0.5,2.24,1.39,5.87l0,0l0,0c0.72-2.79,0.74-5.8-0.1-8.78C401.13,98.46,394.39,93.64,387.06,93.64"/>
	<path class="st0" d="M319.9,117.52c-1.53,0-3.08,0.21-4.61,0.65c-8.94,2.54-14.12,11.85-11.57,20.79c0.35,1.23,0.84,2.38,1.43,3.46
		c-0.18-1.38-0.26-2.24-0.29-2.47c-0.76-8.21,5.29-15.48,13.49-16.23c0.47-0.04,0.93-0.06,1.39-0.06c7.61,0,14.1,5.79,14.84,13.52
		c0.01,0.07,0.17,1.61,0.59,4.21l0,0l0,0c1.62-3.52,2.06-7.62,0.91-11.64C333.96,122.35,327.22,117.52,319.9,117.52"/>
	<path class="st0" d="M255.09,155.63c-1.53,0-3.08,0.21-4.61,0.65c-8.94,2.54-14.12,11.85-11.57,20.79
		c0.03,0.11,0.08,0.21,0.11,0.32c-0.03-1.27-0.02-2.06-0.02-2.29c0.21-8.11,6.85-14.54,14.92-14.54c0.13,0,0.25,0,0.38,0
		c8.21,0.21,14.71,7.02,14.54,15.22c-0.01,0.38-0.01,2.51,0.36,5.81l0,0l0,0c2.54-3.93,3.46-8.89,2.08-13.75
		C269.16,160.45,262.42,155.63,255.09,155.63"/>
	<path class="st0" d="M599.52,57.5c-1.52,0-3.07,0.21-4.61,0.65c-8.94,2.54-14.12,11.85-11.57,20.79c1.35,4.72,4.59,8.38,8.66,10.42
		c-1.38-2.86-2.45-4.56-2.62-4.84c-4.42-6.92-2.45-16.14,4.44-20.6c2.52-1.62,5.34-2.4,8.12-2.4c4.84,0,9.58,2.36,12.44,6.71
		c0.12,0.19,0.55,0.85,1.19,1.95c-0.07-0.28-0.11-0.55-0.19-0.83c-0.44-1.55-1.08-2.99-1.85-4.33l0,0l0,0
		C610.42,60.34,605.15,57.5,599.52,57.5"/>
	<path class="st0" d="M281.57,215.56L281.57,215.56c-4.95,3.09-8.09,5.26-9.36,6.16l-0.03,0.02c-0.11,0.08-0.2,0.14-0.28,0.2
		l-0.08,0.06l-0.15,0.11l-0.11,0.08l0,0c-0.37,0.27-0.75,0.52-1.13,0.75l0,0l-0.26,0.16l0,0c-0.36,0.21-0.73,0.41-1.11,0.59
		c-0.01,0.01-0.02,0.01-0.04,0.02l-0.23,0.1l0,0c-0.17,0.07-0.33,0.15-0.5,0.21c-0.17,0.07-0.33,0.13-0.5,0.19
		c-0.01,0-0.02,0.01-0.03,0.01c-0.09,0.03-0.19,0.07-0.28,0.1l0,0c-0.37,0.13-0.75,0.24-1.12,0.33l0,0
		c-0.14,0.04-0.29,0.07-0.43,0.1l0,0c-0.28,0.06-0.56,0.11-0.83,0.16c-0.21,0.03-0.42,0.06-0.63,0.09l0,0
		c-0.14,0.02-0.27,0.03-0.41,0.04c-0.14,0.01-0.28,0.02-0.41,0.03l0,0c-0.21,0.01-0.41,0.02-0.62,0.03l0,0c-0.06,0-0.13,0-0.19,0
		c-0.13,0-0.25,0-0.38,0c-0.37-0.01-0.74-0.03-1.11-0.06c-0.13-0.01-0.26-0.02-0.39-0.04c-0.74-0.09-1.47-0.23-2.18-0.42
		c-0.08-0.02-0.15-0.04-0.23-0.06l0,0l-0.23-0.07l0,0c-0.25-0.08-0.5-0.15-0.74-0.24c0,0,0,0,0,0c-1.01-0.37-1.99-0.85-2.91-1.44
		c-0.89,0.51-1.78,1.02-2.66,1.54c1.56,2.84,3.3,5.7,5.25,8.55c8.64-5.06,17.38-9.95,26.19-14.68
		C282.79,217.3,282.17,216.44,281.57,215.56"/>
	<path class="st0" d="M250.12,202.16c-2.03,1.16-4.06,2.32-6.09,3.49c0.81,2.55,1.75,5.18,2.85,7.87c0.38-0.22,0.76-0.44,1.14-0.65
		C247.35,209.18,248.09,205.34,250.12,202.16"/>
	<path class="st0" d="M251.8,200c-0.63,0.67-1.19,1.4-1.68,2.16l0.05-0.03l0,0l0,0C250.65,201.38,251.18,200.66,251.8,200"/>
	<path class="st0" d="M252.48,199.31c-0.12,0.11-0.23,0.23-0.34,0.34C252.26,199.54,252.37,199.42,252.48,199.31 M252.72,199.09
		c-0.08,0.07-0.16,0.15-0.24,0.22C252.56,199.24,252.64,199.16,252.72,199.09"/>
	<path class="st0" d="M270.09,187.49L270.09,187.49L270.09,187.49c-7.14,4.35-11.97,7.64-14.46,9.4
		C258.12,195.13,262.97,191.83,270.09,187.49L270.09,187.49"/>
	<path class="st0" d="M255.39,197.06c-0.13,0.09-0.26,0.18-0.38,0.27C255.13,197.24,255.25,197.15,255.39,197.06 M255.59,196.91
		c-0.07,0.05-0.14,0.1-0.2,0.14C255.45,197.01,255.52,196.96,255.59,196.91"/>
	<path class="st0" d="M254.9,197.41c-0.15,0.1-0.28,0.2-0.4,0.29C254.61,197.61,254.75,197.51,254.9,197.41"/>
	<polyline class="st0" points="254.31,197.83 254.08,198 254.31,197.83 	"/>
	<path class="st0" d="M250.52,211.43c-0.83,0.48-1.67,0.96-2.5,1.44c0.4,2.18,1.27,4.31,2.68,6.21c1.12,1.51,2.47,2.73,3.96,3.68
		c0.49-0.28,0.99-0.56,1.48-0.84C253.97,218.38,252.11,214.86,250.52,211.43"/>
	<path class="st0" d="M253.73,198.25c-0.35,0.27-0.69,0.55-1.01,0.84C253.04,198.8,253.38,198.52,253.73,198.25 M253.79,198.21
		c-0.02,0.02-0.04,0.03-0.06,0.05C253.75,198.24,253.77,198.22,253.79,198.21"/>
	<path class="st0" d="M253.95,198.09c-0.06,0.04-0.11,0.08-0.15,0.11C253.84,198.17,253.89,198.14,253.95,198.09 M253.95,198.09
		C253.95,198.09,253.95,198.09,253.95,198.09C253.95,198.09,253.95,198.09,253.95,198.09 M253.95,198.09
		C253.95,198.09,253.95,198.09,253.95,198.09C253.95,198.09,253.95,198.09,253.95,198.09 M254.08,198
		c-0.05,0.03-0.09,0.07-0.13,0.09C253.99,198.06,254.03,198.03,254.08,198"/>
	<polyline class="st0" points="255.62,196.89 255.59,196.91 255.62,196.89 	"/>
	<polyline class="st0" points="254.49,197.7 254.31,197.83 254.49,197.7 	"/>
	<path class="st0" d="M251.97,199.82c-0.06,0.06-0.11,0.11-0.17,0.17C251.86,199.94,251.91,199.88,251.97,199.82 M252.14,199.65
		c-0.06,0.06-0.12,0.11-0.17,0.17C252.03,199.77,252.09,199.71,252.14,199.65"/>
	<polyline class="st0" points="255.01,197.32 254.9,197.41 255.01,197.32 	"/>
	<path class="st0" d="M278.09,209.85L278.09,209.85L278.09,209.85c-7.38,3.91-14.7,7.94-21.95,12.08c0.46,0.76,0.94,1.52,1.44,2.28
		c0.25,0.09,0.49,0.17,0.74,0.25l0,0l0.23,0.07l0,0c0.08,0.02,0.15,0.04,0.23,0.06c0.72,0.19,1.45,0.34,2.18,0.42
		c0.13,0.02,0.26,0.03,0.39,0.04c0.37,0.03,0.74,0.05,1.11,0.06c0.13,0,0.26,0,0.39,0c0.06,0,0.12,0,0.18,0l0,0
		c0.21,0,0.41-0.01,0.62-0.03l0,0c0.14-0.01,0.28-0.02,0.41-0.03c0.14-0.01,0.27-0.03,0.41-0.04l0,0c0.21-0.02,0.42-0.06,0.63-0.09
		c0.28-0.05,0.56-0.1,0.83-0.16l0,0c0.14-0.03,0.29-0.06,0.43-0.1l0,0c0.38-0.1,0.75-0.21,1.12-0.33l0,0
		c0.09-0.03,0.19-0.07,0.28-0.1c0.01,0,0.02-0.01,0.03-0.01c0.17-0.06,0.34-0.13,0.5-0.19c0.17-0.07,0.33-0.14,0.5-0.21l0,0
		l0.23-0.1c0.01-0.01,0.02-0.01,0.04-0.02c0.37-0.18,0.74-0.37,1.11-0.59l0,0l0.26-0.16l0,0c0.38-0.23,0.76-0.48,1.13-0.75l0,0
		l0.11-0.08l0.15-0.11l0.08-0.06c0.08-0.06,0.17-0.12,0.28-0.2l0.03-0.02c1.26-0.89,4.39-3.05,9.36-6.16
		C280.28,213.66,279.13,211.75,278.09,209.85"/>
	<path class="st1" d="M263.65,225.07c-0.21,0.01-0.41,0.02-0.62,0.03C263.24,225.1,263.44,225.09,263.65,225.07 M264.47,225
		c-0.14,0.02-0.27,0.03-0.41,0.04C264.2,225.03,264.34,225.01,264.47,225 M266.37,224.65c-0.14,0.04-0.29,0.07-0.43,0.1
		C266.08,224.72,266.22,224.68,266.37,224.65 M258.54,224.51c0.08,0.02,0.15,0.04,0.23,0.06
		C258.69,224.56,258.62,224.53,258.54,224.51 M267.77,224.21c-0.09,0.03-0.19,0.07-0.28,0.1
		C267.58,224.28,267.68,224.25,267.77,224.21 M257.57,224.2C257.57,224.2,257.57,224.2,257.57,224.2c0.25,0.09,0.49,0.17,0.74,0.25
		C258.07,224.37,257.82,224.29,257.57,224.2 M268.81,223.79c-0.17,0.07-0.33,0.15-0.5,0.21
		C268.48,223.94,268.64,223.87,268.81,223.79 M270.18,223.09c-0.36,0.21-0.73,0.41-1.11,0.59
		C269.45,223.5,269.81,223.3,270.18,223.09 M271.57,222.18c-0.37,0.27-0.75,0.52-1.13,0.75C270.82,222.7,271.2,222.45,271.57,222.18
		"/>
	<path class="st0" d="M270.79,190.8L270.79,190.8L270.79,190.8c-6.93,3.68-13.8,7.46-20.62,11.33l0,0
		c-0.84,1.33-1.46,2.77-1.85,4.27c0.67,1.65,1.4,3.33,2.2,5.03c7.5-4.28,15.06-8.44,22.69-12.47
		C272.18,196.08,271.4,193.33,270.79,190.8"/>
	<path class="st0" d="M292.48,228.04L292.48,228.04L292.48,228.04c-0.99,0.12-1.98,0.29-2.96,0.58
		c-10.2,2.9-16.12,13.53-13.21,23.73c0.15,0.53,0.34,1.05,0.53,1.56c1.66,1.33,3.39,2.64,5.2,3.91c2.61,1.83,5.6,2.71,8.56,2.71
		c1.39,0,2.77-0.19,4.11-0.57c3.17-0.9,6.07-2.86,8.12-5.77c4.74-6.74,3.11-16.05-3.64-20.79
		C296.75,231.69,294.54,229.9,292.48,228.04"/>
	<path class="st0" d="M239.01,177.38c0.03,1.19,0.11,2.81,0.28,4.78c3.47,5.72,9.72,9.24,16.4,9.24c1.74,0,3.5-0.24,5.26-0.74
		c3.48-0.99,6.44-2.89,8.75-5.36c-0.22-1.36-0.38-2.59-0.51-3.71l0,0l0,0c-2.14,3.3-5.42,5.88-9.5,7.04
		c-1.54,0.44-3.09,0.65-4.61,0.65C247.87,189.28,241.22,184.6,239.01,177.38"/>
	<path class="st0" d="M348.42,181.66L348.42,181.66c-2.18,0.91-4.31,1.82-6.4,2.73c-0.04,0.02-0.08,0.03-0.12,0.05
		c-0.21,0.09-0.42,0.18-0.62,0.27l0,0l0,0c-2.08,0.9-4.11,1.8-6.09,2.69c-0.99,0.45-1.97,0.89-2.94,1.33
		c-0.33,0.15-0.66,0.3-0.99,0.45c-0.84,0.38-1.66,0.77-2.48,1.15c-0.41,0.19-0.81,0.38-1.21,0.57c-0.81,0.38-1.62,0.76-2.42,1.14v0
		c-1.35,0.64-2.67,1.27-3.97,1.9c0.72,1.41,1.47,2.82,2.25,4.22c9.09-4.23,18.25-8.27,27.45-12.11
		C350.01,184.59,349.19,183.13,348.42,181.66"/>
	<path class="st0" d="M318.33,162.02c-0.5,0.23-1,0.46-1.5,0.69C317.33,162.49,317.83,162.25,318.33,162.02"/>
	<path class="st0" d="M322.77,160c-0.65,0.29-1.3,0.59-1.94,0.88C321.48,160.58,322.12,160.29,322.77,160 M324.74,159.12
		c-0.66,0.29-1.31,0.59-1.96,0.88C323.42,159.71,324.08,159.41,324.74,159.12"/>
	<path class="st0" d="M313.27,164.39c-0.12,0.06-0.24,0.11-0.35,0.17C313.03,164.5,313.15,164.44,313.27,164.39"/>
	<path class="st0" d="M327.53,157.88c-0.51,0.22-1.01,0.44-1.51,0.66C326.52,158.32,327.02,158.1,327.53,157.88 M329.05,157.21
		c-0.51,0.22-1.02,0.44-1.52,0.67C328.03,157.66,328.54,157.44,329.05,157.21"/>
	<path class="st0" d="M312.87,164.57c-0.92,0.44-1.81,0.87-2.71,1.3c0.44,1.52,0.92,3.09,1.43,4.69c0.98-0.45,1.96-0.9,2.95-1.35
		C313.95,167.63,313.38,166.07,312.87,164.57"/>
	<path class="st0" d="M337.73,153.5L337.73,153.5L337.73,153.5c-2.72,1.14-5.36,2.27-7.95,3.4
		C332.37,155.77,335.02,154.64,337.73,153.5L337.73,153.5"/>
	<path class="st0" d="M317.73,177.12c-1.11,0.5-2.21,1.01-3.31,1.51c1.35,3.57,2.89,7.26,4.64,10.98c1.27-0.58,2.54-1.17,3.82-1.74
		C320.95,184.22,319.25,180.62,317.73,177.12"/>
	<polyline class="st0" points="312.91,164.55 312.87,164.57 312.87,164.57 312.91,164.55 	"/>
	<path class="st0" d="M329.78,156.9c-0.24,0.11-0.49,0.21-0.73,0.32C329.29,157.11,329.54,157,329.78,156.9"/>
	<path class="st0" d="M314.53,163.79c-0.42,0.2-0.84,0.4-1.26,0.59C313.68,164.19,314.1,163.99,314.53,163.79 M316.83,162.72
		c-0.77,0.36-1.54,0.72-2.31,1.08C315.29,163.43,316.06,163.08,316.83,162.72"/>
	<path class="st0" d="M319.58,161.45c-0.42,0.19-0.83,0.38-1.25,0.57C318.74,161.83,319.16,161.64,319.58,161.45 M320.84,160.87
		c-0.42,0.19-0.84,0.38-1.26,0.57C320,161.26,320.42,161.07,320.84,160.87"/>
	<path class="st0" d="M325.38,158.83c-0.21,0.1-0.43,0.19-0.64,0.29C324.95,159.02,325.16,158.93,325.38,158.83 M326.02,158.54
		c-0.22,0.1-0.43,0.19-0.64,0.29C325.59,158.74,325.8,158.64,326.02,158.54"/>
	<path class="st0" d="M339.12,158.5L339.12,158.5L339.12,158.5c-8.24,3.43-16.43,7-24.58,10.72c0.95,2.55,2.01,5.19,3.19,7.91
		c7.99-3.61,16.02-7.09,24.09-10.42C340.79,163.86,339.89,161.11,339.12,158.5"/>
	<path class="st0" d="M346.44,177.7L346.44,177.7L346.44,177.7c-7.9,3.25-15.75,6.64-23.56,10.17c0.73,1.38,1.48,2.77,2.26,4.16
		c0.8-0.38,1.61-0.76,2.42-1.14c0.4-0.19,0.81-0.38,1.21-0.57c0.82-0.38,1.64-0.76,2.48-1.15c0.33-0.15,0.66-0.3,0.99-0.45
		c0.97-0.44,1.95-0.89,2.94-1.33c1.99-0.89,4.02-1.79,6.09-2.69l0,0l0,0c0.21-0.09,0.42-0.18,0.62-0.27
		c0.04-0.02,0.08-0.03,0.12-0.05c2.09-0.91,4.21-1.81,6.39-2.73C347.73,180.34,347.06,179.02,346.44,177.7"/>
	<path class="st1" d="M341.28,184.71c-2.08,0.9-4.11,1.8-6.09,2.69C337.18,186.51,339.21,185.61,341.28,184.71 M341.91,184.44
		c-0.21,0.09-0.42,0.18-0.62,0.27C341.49,184.62,341.7,184.53,341.91,184.44"/>
	<path class="st0" d="M352.83,193.86c-1.72,0-3.46,0.23-5.2,0.72c-8.75,2.49-14.33,10.66-13.91,19.37c1.69,2.2,3.48,4.36,5.36,6.47
		c2.95,3.29,7.03,4.97,11.12,4.97c1.38,0,2.75-0.19,4.09-0.57c2.11-0.6,4.11-1.67,5.85-3.23c6.14-5.49,6.66-14.93,1.17-21.07
		c-1.84-2.06-3.54-4.19-5.14-6.38l0,0l0,0C355.09,193.96,353.97,193.86,352.83,193.86"/>
	<path class="st0" d="M335.16,141.38c-1.98,4.3-5.75,7.75-10.66,9.15c-1.54,0.44-3.09,0.65-4.61,0.65c-6.11,0-11.8-3.36-14.75-8.76
		c0.19,1.42,0.47,3.4,0.9,5.83c3.6,3.89,8.71,6.18,14.1,6.18c1.74,0,3.5-0.24,5.25-0.74c4.51-1.28,8.17-4.08,10.62-7.67
		C335.65,144.24,335.37,142.68,335.16,141.38L335.16,141.38L335.16,141.38"/>
	<path class="st0" d="M416.34,157.73L416.34,157.73L416.34,157.73c-9.99,2.91-19.5,5.92-28.49,8.98c0.53,1.48,1.08,2.97,1.64,4.47
		c9.44-3.32,18.9-6.44,28.39-9.32C417.36,160.49,416.85,159.11,416.34,157.73"/>
	<path class="st0" d="M407.16,129.08L407.16,129.08L407.16,129.08c-9.96,2.9-19.47,5.91-28.5,8.97c0.44,1.54,0.9,3.14,1.39,4.79
		c9.43-3.3,18.9-6.4,28.39-9.29C408,132.01,407.57,130.52,407.16,129.08"/>
	<path class="st0" d="M411.04,142.07L411.04,142.07L411.04,142.07c-9.5,2.85-18.98,5.91-28.42,9.17c1.16,3.66,2.41,7.45,3.76,11.33
		c9.44-3.26,18.92-6.33,28.42-9.17C413.45,149.53,412.2,145.73,411.04,142.07"/>
	<path class="st0" d="M413.21,170.48c-1.73,0-3.5,0.24-5.25,0.74c-6.61,1.88-11.4,7.01-13.18,13.16c1.09,2.54,2.22,5.07,3.38,7.56
		c2.54,5.42,7.91,8.6,13.52,8.6c1.35,0,2.72-0.18,4.06-0.57c0.76-0.22,1.52-0.5,2.26-0.85c7.46-3.49,10.68-12.38,7.18-19.84
		c-1-2.14-1.97-4.31-2.91-6.51l0,0l0,0C419.52,171.3,416.42,170.48,413.21,170.48"/>
	<path class="st0" d="M403.33,114.64c-1.44,5.6-5.71,10.31-11.68,12.01c-1.54,0.44-3.08,0.65-4.6,0.65c-4.96,0-9.64-2.21-12.81-5.93
		c0.23,0.93,0.48,1.96,0.76,3.07c3.31,2.53,7.4,3.97,11.67,3.97c1.73,0,3.49-0.24,5.24-0.74c5.55-1.58,9.81-5.45,12.1-10.29
		C403.77,116.38,403.54,115.47,403.33,114.64L403.33,114.64L403.33,114.64"/>
	<path class="st0" d="M485.89,141.31L485.89,141.31L485.89,141.31c-10.08,1.85-19.83,3.86-29.24,5.99c0.26,1.29,0.52,2.58,0.77,3.88
		c9.64-2.3,19.38-4.39,29.19-6.29C486.37,143.69,486.13,142.49,485.89,141.31"/>
	<path class="st0" d="M482.12,124.76L482.12,124.76L482.12,124.76c-9.81,1.87-19.56,3.93-29.23,6.19c0.94,3.72,1.87,7.61,2.75,11.61
		c9.66-2.25,19.4-4.3,29.2-6.17C483.97,132.39,483.05,128.49,482.12,124.76"/>
	<path class="st0" d="M478.78,112.14L478.78,112.14L478.78,112.14c-10.09,1.87-19.88,3.87-29.32,6.01c0.36,1.28,0.74,2.61,1.11,3.97
		c9.67-2.31,19.41-4.44,29.21-6.38C479.44,114.51,479.11,113.32,478.78,112.14"/>
	<path class="st0" d="M474.67,150.93c-1.74,0-3.5,0.24-5.26,0.74c-4.47,1.27-8.12,4.03-10.56,7.58c0.55,3.36,1.03,6.72,1.42,10.04
		c0.89,7.59,7.34,13.19,14.8,13.19c0.58,0,1.17-0.03,1.76-0.1c0.81-0.1,1.61-0.25,2.37-0.47c6.91-1.97,11.58-8.71,10.72-16.09
		c-0.34-2.92-0.75-5.84-1.19-8.77l0,0l0,0C485.12,153.2,480.04,150.93,474.67,150.93"/>
	<path class="st0" d="M471.89,89.66c0.68,7.87-4.27,15.36-12.15,17.61c-1.54,0.44-3.08,0.65-4.61,0.65c-3.51,0-6.89-1.11-9.68-3.08
		c0.49,1.56,1.04,3.32,1.63,5.26c1.91,0.63,3.93,0.96,5.99,0.96c1.74,0,3.51-0.24,5.27-0.74c8.82-2.51,14.43-10.8,13.91-19.59l0,0
		l0,0C472.12,90.34,472,89.98,471.89,89.66"/>
	<path class="st0" d="M556.73,131.73L556.73,131.73L556.73,131.73c-10.17,0.89-20.07,1.97-29.73,3.2c0.04,1.08,0.05,2.18,0.05,3.27
		c9.88-1.36,19.82-2.53,29.79-3.51C556.82,133.7,556.78,132.71,556.73,131.73"/>
	<path class="st0" d="M554.83,114.45L554.83,114.45L554.83,114.45c-9.94,0.94-19.85,2.05-29.72,3.36c0.69,3.76,1.23,7.72,1.57,11.82
		c9.85-1.31,19.74-2.43,29.67-3.37C555.99,122.19,555.47,118.23,554.83,114.45"/>
	<path class="st0" d="M552.27,102.14L552.27,102.14L552.27,102.14c-10.26,0.92-20.27,2-30.02,3.24c0.28,1,0.55,2.03,0.82,3.08
		c9.91-1.38,19.87-2.59,29.85-3.6C552.71,103.94,552.49,103.04,552.27,102.14"/>
	<path class="st0" d="M540.67,70.54c0.74,1.24,1.35,2.58,1.76,4.03c2.54,8.94-2.64,18.24-11.57,20.79
		c-1.53,0.44-3.07,0.64-4.58,0.64c-2.71,0-5.34-0.66-7.68-1.86c0.47,1.28,0.97,2.68,1.48,4.21c1.45,0.35,2.96,0.53,4.48,0.53
		c1.73,0,3.49-0.24,5.24-0.73c9.83-2.8,15.65-12.76,13.48-22.61l0,0l0,0c-0.78-1.75-1.29-2.8-1.42-3.05
		C541.51,71.79,541.11,71.15,540.67,70.54"/>
	<path class="st0" d="M538.52,142.23c-1.74,0-3.5,0.24-5.26,0.74c-2.46,0.7-4.66,1.86-6.56,3.34l0,0l0,0
		c-0.21,2.46-0.52,4.93-0.95,7.4c-1.44,8.11,3.98,15.86,12.09,17.29c0.88,0.16,1.76,0.23,2.62,0.23c1.39,0,2.76-0.2,4.06-0.57
		c5.32-1.51,9.59-5.94,10.62-11.76c0.32-1.83,0.6-3.66,0.83-5.48C552.81,146.57,545.94,142.23,538.52,142.23"/>
	<path class="st0" d="M629.4,122.72c-3.5,0.01-7,0.05-10.51,0.11c-1.93,2.61-4.69,4.58-7.91,5.5c-1.19,0.34-2.44,0.53-3.73,0.57
		c-2.7,0.07-5.38,0.16-8.05,0.25l0,0l0,0c-0.08,0.84-0.18,1.69-0.3,2.54c10.04-0.45,20.08-0.73,30.13-0.8
		C629.27,128.1,629.39,125.38,629.4,122.72"/>
	<path class="st0" d="M627.09,100.72L627.09,100.72L627.09,100.72c-4.31,0.05-8.61,0.13-12.92,0.25c3.68,2.07,6.41,5.65,7.31,9.93
		l0,0l0,0c2.42-0.03,4.85-0.05,7.27-0.06C628.34,107.29,627.77,103.91,627.09,100.72"/>
	<path class="st0" d="M621.47,110.9L621.47,110.9L621.47,110.9c-7.56,0.1-15.13,0.29-22.69,0.6c0.55,3.7,0.84,7.68,0.76,11.88
		c6.45-0.26,12.89-0.44,19.34-0.54c1.9-2.58,2.99-5.78,2.91-9.22C621.77,112.68,621.66,111.77,621.47,110.9"/>
	<path class="st0" d="M606.88,99.05c-0.12,0-0.24,0-0.37,0c-3.54,0.09-7.05,0.2-10.55,0.33c0.23,0.72,0.45,1.47,0.67,2.23
		c5.84-0.28,11.68-0.49,17.53-0.65C612,99.75,609.52,99.05,606.88,99.05"/>
	<path class="st0" d="M615.57,70.17c0.81,3.42,0.66,6.86-0.3,10.02c1.09-2.9,1.38-6.12,0.69-9.34l0,0l0,0
		C615.82,70.61,615.69,70.38,615.57,70.17"/>
	<path class="st0" d="M615.27,80.19c-1.81,4.84-5.79,8.79-11.14,10.32c-1.53,0.44-3.07,0.64-4.58,0.64c-2.66,0-5.23-0.64-7.54-1.79
		c0.58,1.2,1.21,2.6,1.86,4.19c1.02,0.16,2.06,0.25,3.1,0.25c1.72,0,3.46-0.23,5.2-0.73C608.67,91.22,613.43,86.22,615.27,80.19"/>
	<path class="st0" d="M605.99,139.28c-1.74,0-3.51,0.24-5.27,0.74c-1.42,0.41-2.75,0.98-4,1.66l0,0l0,0
		c-0.76,2.57-1.67,5.17-2.79,7.8c-3.24,7.58,0.28,16.35,7.86,19.59c1.91,0.82,3.9,1.2,5.86,1.2c1.39,0,2.77-0.2,4.09-0.57
		c4.18-1.19,7.8-4.19,9.64-8.49c1.16-2.72,2.17-5.41,3.05-8.07C621.99,144.74,614.33,139.28,605.99,139.28"/>
	<path class="st0" d="M663.09,124.8c-0.82,0-1.47,0.65-1.49,1.46c-0.04,1.66-0.12,3.33-0.23,5.01c1,0.03,1.99,0.06,2.99,0.1
		c0.11-1.68,0.19-3.37,0.22-5.04c0.02-0.82-0.63-1.51-1.46-1.52C663.11,124.8,663.1,124.8,663.09,124.8"/>
	<path class="st0" d="M216.36,225.44c-0.17,0-0.34,0.02-0.51,0.08c-0.77,0.3-1.16,1.16-0.86,1.93c0.55,1.45,1.14,2.9,1.75,4.33
		c0.85-0.54,1.71-1.08,2.56-1.61c-0.53-1.25-1.04-2.52-1.52-3.78C217.55,225.77,216.98,225.44,216.36,225.44"/>
	<path class="st0" d="M226.99,246.76c-0.27,0-0.54,0.07-0.79,0.23c-0.7,0.44-0.91,1.36-0.47,2.06c0.48,0.76,0.98,1.52,1.48,2.27
		c0.84-0.54,1.67-1.08,2.51-1.62c-0.49-0.74-0.99-1.49-1.46-2.24C227.98,247.01,227.49,246.76,226.99,246.76"/>
	<path class="st0" d="M661.22,101.04l-0.18,0.01c-0.83,0.13-1.36,0.91-1.22,1.72c0.49,2.85,0.89,5.72,1.18,8.56
		c0.99,0.03,1.98,0.08,2.98,0.12l0.02-0.21c-0.3-2.97-0.71-5.99-1.23-8.97c-0.12-0.66-0.66-1.14-1.29-1.22l0,0L661.22,101.04
		L661.22,101.04"/>
</g>
</svg>
